<svg width="159" height="153" viewBox="0 0 159 153" fill="none" xmlns="http://www.w3.org/2000/svg">
<path d="M0 10C0 4.47715 4.47715 0 10 0H149C154.523 0 159 4.47715 159 10V143C159 148.523 154.523 153 149 153H10C4.47715 153 0 148.523 0 143V10Z" fill="white"/>
<path d="M25.8343 102.656L30.1526 113.346C30.4881 114.177 30.9338 114.959 31.4776 115.671L35.764 121.283C37.0078 122.911 38.7217 124.118 40.6739 124.741L46.2792 126.528C47.2612 126.841 48.2857 127 49.3164 127H80.2126" stroke="#00C8F3" stroke-width="12"/>
<path d="M134.591 102.656L130.273 113.346C129.937 114.177 129.491 114.959 128.948 115.671L124.661 121.283C123.417 122.911 121.703 124.118 119.751 124.741L114.146 126.528C113.164 126.841 112.14 127 111.109 127L80.2126 127" stroke="#00C8F3" stroke-width="12"/>
<path d="M79.4908 57.6411L95.5032 35.1929C97.3799 32.5619 100.413 31 103.644 31H120.851C124.42 31 127.719 32.9028 129.507 35.9927L145 62.7752" stroke="#00C8F3" stroke-width="12"/>
<path d="M80.5092 58.1313L64.4968 35.6831C62.6201 33.052 59.5875 31.4902 56.3557 31.4902H39.1492C35.5795 31.4902 32.2806 33.3929 30.4931 36.4828L15 63.2653" stroke="#00C8F3" stroke-width="12"/>
<path d="M83.6088 59.6094C82.9631 60.759 82.076 61.6365 81.1633 62.5925C80.1859 63.6163 83.0741 60.4728 84.2053 59.6406C84.824 59.1854 85.7297 58.7323 86.2034 58.0944C86.5056 57.6874 85.2516 58.3842 84.8166 58.6254C84.4993 58.8013 84.6087 59.4305 84.2798 59.4688C83.9595 59.5061 83.6724 59.6094 83.3404 59.6094" stroke="#00C8F3" stroke-linecap="round"/>
<path d="M56.931 59.1654L104.606 58.5637" stroke="white" stroke-width="10"/>
</svg>
