<svg width="159" height="153" viewBox="0 0 159 153" fill="none" xmlns="http://www.w3.org/2000/svg">
<path d="M0 10C0 4.47715 4.47715 0 10 0H149C154.523 0 159 4.47715 159 10V143C159 148.523 154.523 153 149 153H10C4.47715 153 0 148.523 0 143V10Z" fill="#00C8F3"/>
<path d="M24.8343 102.656L29.1526 113.346C29.4881 114.177 29.9338 114.959 30.4776 115.671L34.764 121.283C36.0078 122.911 37.7217 124.118 39.6739 124.741L45.2792 126.528C46.2612 126.841 47.2857 127 48.3164 127H79.2126" stroke="white" stroke-width="12"/>
<path d="M133.591 102.656L129.273 113.346C128.937 114.177 128.491 114.959 127.948 115.671L123.661 121.283C122.417 122.911 120.703 124.118 118.751 124.741L113.146 126.528C112.164 126.841 111.14 127 110.109 127L79.2126 127" stroke="white" stroke-width="12"/>
<path d="M78.4908 57.6411L94.5032 35.1929C96.3799 32.5619 99.4125 31 102.644 31H119.851C123.42 31 126.719 32.9028 128.507 35.9927L144 62.7752" stroke="white" stroke-width="12"/>
<path d="M79.5091 58.1313L63.4968 35.6831C61.62 33.052 58.5875 31.4902 55.3557 31.4902H38.1491C34.5795 31.4902 31.2805 33.3929 29.4931 36.4828L14 63.2653" stroke="white" stroke-width="12"/>
<path d="M82.6088 59.6094C81.9631 60.759 81.076 61.6365 80.1633 62.5925C79.1859 63.6163 82.0741 60.4728 83.2053 59.6406C83.824 59.1854 84.7297 58.7323 85.2034 58.0944C85.5056 57.6874 84.2516 58.3842 83.8166 58.6254C83.4993 58.8013 83.6087 59.4305 83.2798 59.4688C82.9595 59.5061 82.6724 59.6094 82.3404 59.6094" stroke="#00C8F3" stroke-linecap="round"/>
<path d="M55.931 59.1654L103.606 58.5637" stroke="#00C8F3" stroke-width="10"/>
</svg>
