<svg width="338" height="63" viewBox="0 0 338 63" fill="none" xmlns="http://www.w3.org/2000/svg">
<path d="M9.58249 45.8278L11.5414 50.5339C11.8909 51.3734 12.3532 52.1613 12.9156 52.8759L13.7567 53.9445C15.0114 55.5386 16.7213 56.7134 18.6594 57.3129L19.4366 57.5534C20.3938 57.8494 21.39 58 22.3918 58H37.6015" stroke="#00C8F3" stroke-width="9"/>
<path d="M65.6205 45.8278L63.6615 50.5339C63.3121 51.3734 62.8498 52.1613 62.2873 52.8759L61.4462 53.9445C60.1915 55.5386 58.4816 56.7134 56.5435 57.3129L55.7663 57.5534C54.8092 57.8494 53.813 58 52.8111 58L37.6015 58" stroke="#00C8F3" stroke-width="9"/>
<path d="M36.2457 23.3206L43.0402 14.0773C44.9245 11.5138 47.9161 10 51.0976 10H54.8481C58.3709 10 61.6338 11.8536 63.4377 14.8795L70 25.8876" stroke="#00C8F3" stroke-width="9"/>
<path d="M37.7543 23.5657L30.9598 14.3223C29.0755 11.7589 26.0839 10.2451 22.9024 10.2451H19.1519C15.6291 10.2451 12.3662 12.0986 10.5623 15.1245L4 26.1327" stroke="#00C8F3" stroke-width="9"/>
<path d="M42.7713 20.1721L38.9238 24.0827L37.148 25.8876" stroke="#00C8F3"/>
<path d="M38.6046 25.2704C38.4392 25.4463 38.2662 25.6186 38.0913 25.7963C37.8105 26.0817 38.1491 25.7192 38.6046 25.2704Z" fill="white"/>
<path d="M39.3514 24.3047C39.0187 24.8795 38.5616 25.3183 38.0913 25.7963C37.5877 26.3081 39.0759 24.7364 39.6587 24.3203C39.9775 24.0927 40.4442 23.8662 40.6883 23.5472C40.844 23.3437 40.1979 23.6921 39.9737 23.8127C39.8102 23.9007 39.8666 24.2153 39.6971 24.2344C39.5321 24.253 39.3842 24.3047 39.2131 24.3047" stroke="#00C8F3" stroke-linecap="round"/>
<path d="M25.6054 24.0827L50.1703 23.7819" stroke="white" stroke-width="10"/>
<mask id="path-9-outside-1_25_5" maskUnits="userSpaceOnUse" x="91" y="14" width="239" height="39" fill="black">
<rect fill="white" x="91" y="14" width="239" height="39"/>
<path d="M130.88 49.9448L126.332 50.8457L121.916 23.27L114.665 47.1543L109.215 47.7915L100.998 24.6104L97.0205 49.813L92.3843 49.1758L98.4707 17.1396H103.019L111.874 42.4741L119.762 17.4033L124.926 17.2715L130.88 49.9448ZM165.597 37.1567L152.545 37.7939L152.633 44.6714L171.618 43.5947L171.706 47.9233L148.502 49.1758L147.997 17.8647L171.859 17.4912L171.706 21.688L152.326 21.9956L152.458 33.4653L165.509 32.938L165.597 37.1567ZM215.893 29.2466C215.849 30.3745 215.622 31.4072 215.211 32.3447C214.801 33.2822 214.259 34.1318 213.585 34.8936C212.912 35.6406 212.128 36.3145 211.234 36.915C210.341 37.501 209.389 38.0063 208.378 38.4312L214.772 48.4946L210.224 49.9888L204.071 39.7275C203.368 39.8594 202.636 39.9692 201.874 40.0571C201.127 40.145 200.299 40.189 199.391 40.189C198.659 40.189 197.853 40.1597 196.974 40.1011C196.11 40.0278 195.202 39.9033 194.25 39.7275L194.337 49.0439L189.701 49.2197V18.1284C190.961 17.7476 192.221 17.4619 193.48 17.2715C194.74 17.0811 195.89 16.9346 196.93 16.832C198.131 16.7295 199.296 16.6636 200.424 16.6343C201.376 16.6343 202.431 16.7002 203.588 16.832C204.745 16.9639 205.902 17.1982 207.06 17.5352C208.231 17.8721 209.359 18.3408 210.443 18.9414C211.542 19.542 212.501 20.311 213.322 21.2485C214.157 22.1714 214.809 23.292 215.277 24.6104C215.746 25.9287 215.951 27.4741 215.893 29.2466ZM200.424 21.0508C199.75 21.0508 199.054 21.0801 198.336 21.1387C197.721 21.1826 197.04 21.2485 196.293 21.3364C195.546 21.4097 194.821 21.5269 194.118 21.688L194.206 35.6846C194.894 35.8164 195.583 35.9116 196.271 35.9702C196.974 36.0142 197.655 36.0361 198.314 36.0361C200.072 36.0361 201.735 35.8384 203.302 35.4429C204.884 35.0327 206.269 34.4761 207.455 33.7729C208.642 33.0698 209.586 32.2422 210.29 31.29C210.993 30.3232 211.344 29.2832 211.344 28.1699C211.344 27.042 211.073 26.0386 210.531 25.1597C210.004 24.2808 209.257 23.541 208.29 22.9404C207.323 22.3252 206.166 21.8564 204.818 21.5342C203.485 21.2119 202.021 21.0508 200.424 21.0508ZM256.959 43.8145C256.813 44.8398 256.52 45.7554 256.081 46.561C255.656 47.3521 255.121 48.0405 254.477 48.6265C253.832 49.2124 253.107 49.7031 252.301 50.0986C251.51 50.5088 250.675 50.8384 249.796 51.0874C248.932 51.3364 248.053 51.5122 247.16 51.6147C246.266 51.7319 245.409 51.7905 244.589 51.7905C243.461 51.7905 242.348 51.666 241.249 51.417C240.15 51.1826 239.066 50.8457 237.997 50.4062C236.942 49.9814 235.895 49.4688 234.855 48.8682C233.83 48.2676 232.812 47.6084 231.801 46.8906L235.009 43.1113C236.151 44.1221 237.279 44.9204 238.393 45.5063C239.521 46.0776 240.531 46.5098 241.425 46.8027C242.465 47.1543 243.461 47.3887 244.413 47.5059C245.468 47.5645 246.449 47.4839 247.357 47.2642C248.266 47.0444 249.057 46.7295 249.73 46.3193C250.419 45.8945 250.968 45.3965 251.378 44.8252C251.789 44.2393 252.03 43.624 252.104 42.9795C252.147 42.4375 252.052 41.9468 251.818 41.5073C251.583 41.0532 251.239 40.6431 250.785 40.2769C250.331 39.896 249.796 39.5664 249.181 39.2881C248.566 38.9951 247.907 38.7388 247.204 38.519C246.515 38.2847 245.797 38.0869 245.05 37.9258C244.318 37.75 243.607 37.6035 242.919 37.4863C242.084 37.3398 241.205 37.1494 240.282 36.915C239.359 36.666 238.451 36.3438 237.558 35.9482C236.664 35.5527 235.822 35.062 235.031 34.4761C234.24 33.8901 233.551 33.187 232.965 32.3667C232.394 31.5317 231.955 30.5649 231.647 29.4663C231.354 28.3677 231.259 27.1079 231.361 25.687C231.449 24.5151 231.691 23.4604 232.086 22.5229C232.497 21.5708 233.017 20.7212 233.646 19.9741C234.291 19.2271 235.023 18.5898 235.844 18.0625C236.679 17.5205 237.565 17.0737 238.502 16.7222C239.44 16.3706 240.407 16.1216 241.403 15.9751C242.414 15.814 243.417 15.7407 244.413 15.7554C245.79 15.8286 247.174 16.041 248.566 16.3926C249.152 16.5391 249.767 16.7295 250.412 16.9639C251.071 17.1836 251.73 17.4546 252.389 17.7769C253.048 18.0845 253.7 18.458 254.345 18.8975C254.989 19.3223 255.604 19.813 256.19 20.3696L253.729 24.2588C253.261 23.7314 252.763 23.27 252.235 22.8745C251.708 22.479 251.173 22.1348 250.631 21.8418C250.104 21.5488 249.577 21.2998 249.049 21.0947C248.522 20.8896 248.024 20.7212 247.555 20.5894C246.427 20.2817 245.321 20.106 244.237 20.062C242.904 20.062 241.718 20.2671 240.678 20.6772C239.638 21.0728 238.759 21.5928 238.041 22.2373C237.338 22.8672 236.796 23.5776 236.415 24.3687C236.049 25.145 235.866 25.9141 235.866 26.6758C235.866 27.4229 236.085 28.1479 236.525 28.8511C236.979 29.5542 237.602 30.1914 238.393 30.7627C239.184 31.334 240.114 31.8247 241.183 32.2349C242.252 32.6304 243.402 32.9087 244.633 33.0698C245.702 33.187 246.764 33.3774 247.819 33.6411C248.888 33.9048 249.906 34.2417 250.873 34.6519C251.84 35.062 252.726 35.5601 253.532 36.146C254.352 36.7173 255.041 37.3838 255.597 38.1455C256.154 38.8926 256.557 39.7422 256.806 40.6943C257.069 41.6318 257.121 42.6719 256.959 43.8145ZM279.394 48.231H274.977L274.208 17.689L279.108 17.8647L279.394 48.231ZM322.812 50.2524C322.387 48.7583 321.947 47.2788 321.493 45.814C321.039 44.3345 320.563 42.8477 320.065 41.3535L302.377 42.1226C301.835 43.5288 301.315 44.9277 300.817 46.3193C300.319 47.7109 299.835 49.1172 299.367 50.5381L294.379 49.8569C296.444 44.3198 298.729 38.8706 301.234 33.5093C303.754 28.1479 306.435 22.8379 309.276 17.5791L315.429 17.689C317.948 22.772 320.248 27.9575 322.328 33.2456C324.408 38.519 326.298 43.939 327.997 49.5054L322.812 50.2524ZM311.891 21.2266C310.412 24.0391 309.013 26.8662 307.694 29.708C306.376 32.5352 305.116 35.3989 303.915 38.2993L318.769 37.6621C317.772 34.8496 316.703 32.0884 315.561 29.3784C314.418 26.6685 313.195 23.9512 311.891 21.2266Z"/>
</mask>
<path d="M130.88 49.9448L126.332 50.8457L121.916 23.27L114.665 47.1543L109.215 47.7915L100.998 24.6104L97.0205 49.813L92.3843 49.1758L98.4707 17.1396H103.019L111.874 42.4741L119.762 17.4033L124.926 17.2715L130.88 49.9448ZM165.597 37.1567L152.545 37.7939L152.633 44.6714L171.618 43.5947L171.706 47.9233L148.502 49.1758L147.997 17.8647L171.859 17.4912L171.706 21.688L152.326 21.9956L152.458 33.4653L165.509 32.938L165.597 37.1567ZM215.893 29.2466C215.849 30.3745 215.622 31.4072 215.211 32.3447C214.801 33.2822 214.259 34.1318 213.585 34.8936C212.912 35.6406 212.128 36.3145 211.234 36.915C210.341 37.501 209.389 38.0063 208.378 38.4312L214.772 48.4946L210.224 49.9888L204.071 39.7275C203.368 39.8594 202.636 39.9692 201.874 40.0571C201.127 40.145 200.299 40.189 199.391 40.189C198.659 40.189 197.853 40.1597 196.974 40.1011C196.11 40.0278 195.202 39.9033 194.25 39.7275L194.337 49.0439L189.701 49.2197V18.1284C190.961 17.7476 192.221 17.4619 193.48 17.2715C194.74 17.0811 195.89 16.9346 196.93 16.832C198.131 16.7295 199.296 16.6636 200.424 16.6343C201.376 16.6343 202.431 16.7002 203.588 16.832C204.745 16.9639 205.902 17.1982 207.06 17.5352C208.231 17.8721 209.359 18.3408 210.443 18.9414C211.542 19.542 212.501 20.311 213.322 21.2485C214.157 22.1714 214.809 23.292 215.277 24.6104C215.746 25.9287 215.951 27.4741 215.893 29.2466ZM200.424 21.0508C199.75 21.0508 199.054 21.0801 198.336 21.1387C197.721 21.1826 197.04 21.2485 196.293 21.3364C195.546 21.4097 194.821 21.5269 194.118 21.688L194.206 35.6846C194.894 35.8164 195.583 35.9116 196.271 35.9702C196.974 36.0142 197.655 36.0361 198.314 36.0361C200.072 36.0361 201.735 35.8384 203.302 35.4429C204.884 35.0327 206.269 34.4761 207.455 33.7729C208.642 33.0698 209.586 32.2422 210.29 31.29C210.993 30.3232 211.344 29.2832 211.344 28.1699C211.344 27.042 211.073 26.0386 210.531 25.1597C210.004 24.2808 209.257 23.541 208.29 22.9404C207.323 22.3252 206.166 21.8564 204.818 21.5342C203.485 21.2119 202.021 21.0508 200.424 21.0508ZM256.959 43.8145C256.813 44.8398 256.52 45.7554 256.081 46.561C255.656 47.3521 255.121 48.0405 254.477 48.6265C253.832 49.2124 253.107 49.7031 252.301 50.0986C251.51 50.5088 250.675 50.8384 249.796 51.0874C248.932 51.3364 248.053 51.5122 247.16 51.6147C246.266 51.7319 245.409 51.7905 244.589 51.7905C243.461 51.7905 242.348 51.666 241.249 51.417C240.15 51.1826 239.066 50.8457 237.997 50.4062C236.942 49.9814 235.895 49.4688 234.855 48.8682C233.83 48.2676 232.812 47.6084 231.801 46.8906L235.009 43.1113C236.151 44.1221 237.279 44.9204 238.393 45.5063C239.521 46.0776 240.531 46.5098 241.425 46.8027C242.465 47.1543 243.461 47.3887 244.413 47.5059C245.468 47.5645 246.449 47.4839 247.357 47.2642C248.266 47.0444 249.057 46.7295 249.73 46.3193C250.419 45.8945 250.968 45.3965 251.378 44.8252C251.789 44.2393 252.03 43.624 252.104 42.9795C252.147 42.4375 252.052 41.9468 251.818 41.5073C251.583 41.0532 251.239 40.6431 250.785 40.2769C250.331 39.896 249.796 39.5664 249.181 39.2881C248.566 38.9951 247.907 38.7388 247.204 38.519C246.515 38.2847 245.797 38.0869 245.05 37.9258C244.318 37.75 243.607 37.6035 242.919 37.4863C242.084 37.3398 241.205 37.1494 240.282 36.915C239.359 36.666 238.451 36.3438 237.558 35.9482C236.664 35.5527 235.822 35.062 235.031 34.4761C234.24 33.8901 233.551 33.187 232.965 32.3667C232.394 31.5317 231.955 30.5649 231.647 29.4663C231.354 28.3677 231.259 27.1079 231.361 25.687C231.449 24.5151 231.691 23.4604 232.086 22.5229C232.497 21.5708 233.017 20.7212 233.646 19.9741C234.291 19.2271 235.023 18.5898 235.844 18.0625C236.679 17.5205 237.565 17.0737 238.502 16.7222C239.44 16.3706 240.407 16.1216 241.403 15.9751C242.414 15.814 243.417 15.7407 244.413 15.7554C245.79 15.8286 247.174 16.041 248.566 16.3926C249.152 16.5391 249.767 16.7295 250.412 16.9639C251.071 17.1836 251.73 17.4546 252.389 17.7769C253.048 18.0845 253.7 18.458 254.345 18.8975C254.989 19.3223 255.604 19.813 256.19 20.3696L253.729 24.2588C253.261 23.7314 252.763 23.27 252.235 22.8745C251.708 22.479 251.173 22.1348 250.631 21.8418C250.104 21.5488 249.577 21.2998 249.049 21.0947C248.522 20.8896 248.024 20.7212 247.555 20.5894C246.427 20.2817 245.321 20.106 244.237 20.062C242.904 20.062 241.718 20.2671 240.678 20.6772C239.638 21.0728 238.759 21.5928 238.041 22.2373C237.338 22.8672 236.796 23.5776 236.415 24.3687C236.049 25.145 235.866 25.9141 235.866 26.6758C235.866 27.4229 236.085 28.1479 236.525 28.8511C236.979 29.5542 237.602 30.1914 238.393 30.7627C239.184 31.334 240.114 31.8247 241.183 32.2349C242.252 32.6304 243.402 32.9087 244.633 33.0698C245.702 33.187 246.764 33.3774 247.819 33.6411C248.888 33.9048 249.906 34.2417 250.873 34.6519C251.84 35.062 252.726 35.5601 253.532 36.146C254.352 36.7173 255.041 37.3838 255.597 38.1455C256.154 38.8926 256.557 39.7422 256.806 40.6943C257.069 41.6318 257.121 42.6719 256.959 43.8145ZM279.394 48.231H274.977L274.208 17.689L279.108 17.8647L279.394 48.231ZM322.812 50.2524C322.387 48.7583 321.947 47.2788 321.493 45.814C321.039 44.3345 320.563 42.8477 320.065 41.3535L302.377 42.1226C301.835 43.5288 301.315 44.9277 300.817 46.3193C300.319 47.7109 299.835 49.1172 299.367 50.5381L294.379 49.8569C296.444 44.3198 298.729 38.8706 301.234 33.5093C303.754 28.1479 306.435 22.8379 309.276 17.5791L315.429 17.689C317.948 22.772 320.248 27.9575 322.328 33.2456C324.408 38.519 326.298 43.939 327.997 49.5054L322.812 50.2524ZM311.891 21.2266C310.412 24.0391 309.013 26.8662 307.694 29.708C306.376 32.5352 305.116 35.3989 303.915 38.2993L318.769 37.6621C317.772 34.8496 316.703 32.0884 315.561 29.3784C314.418 26.6685 313.195 23.9512 311.891 21.2266Z" fill="#00C8F3"/>
<path d="M130.88 49.9448L131.075 50.9258L132.041 50.7344L131.864 49.7655L130.88 49.9448ZM126.332 50.8457L125.345 51.0038L125.509 52.0282L126.526 51.8266L126.332 50.8457ZM121.916 23.27L122.903 23.1119L120.959 22.9795L121.916 23.27ZM114.665 47.1543L114.781 48.1475L115.431 48.0715L115.621 47.4448L114.665 47.1543ZM109.215 47.7915L108.273 48.1256L108.539 48.8774L109.331 48.7847L109.215 47.7915ZM100.998 24.6104L101.94 24.2762L100.01 24.4545L100.998 24.6104ZM97.0205 49.813L96.8843 50.8037L97.8555 50.9371L98.0083 49.9689L97.0205 49.813ZM92.3843 49.1758L91.4019 48.9891L91.2054 50.0232L92.2481 50.1665L92.3843 49.1758ZM98.4707 17.1396V16.1396H97.6428L97.4883 16.953L98.4707 17.1396ZM103.019 17.1396L103.963 16.8097L103.729 16.1396H103.019V17.1396ZM111.874 42.4741L110.93 42.8041L111.924 45.6475L112.828 42.7743L111.874 42.4741ZM119.762 17.4033L119.737 16.4036L119.023 16.4219L118.808 17.1032L119.762 17.4033ZM124.926 17.2715L125.91 17.0922L125.756 16.25L124.9 16.2718L124.926 17.2715ZM130.686 48.9639L126.138 49.8648L126.526 51.8266L131.075 50.9258L130.686 48.9639ZM127.319 50.6876L122.903 23.1119L120.928 23.4282L125.345 51.0038L127.319 50.6876ZM120.959 22.9795L113.708 46.8638L115.621 47.4448L122.872 23.5605L120.959 22.9795ZM114.548 46.1611L109.099 46.7983L109.331 48.7847L114.781 48.1475L114.548 46.1611ZM110.158 47.4574L101.94 24.2762L100.055 24.9445L108.273 48.1256L110.158 47.4574ZM100.01 24.4545L96.0327 49.6571L98.0083 49.9689L101.985 24.7662L100.01 24.4545ZM97.1567 48.8223L92.5204 48.1851L92.2481 50.1665L96.8843 50.8037L97.1567 48.8223ZM93.3667 49.3624L99.4531 17.3263L97.4883 16.953L91.4019 48.9891L93.3667 49.3624ZM98.4707 18.1396H103.019V16.1396H98.4707V18.1396ZM102.075 17.4696L110.93 42.8041L112.818 42.1442L103.963 16.8097L102.075 17.4696ZM112.828 42.7743L120.716 17.7035L118.808 17.1032L110.92 42.174L112.828 42.7743ZM119.788 18.403L124.951 18.2712L124.9 16.2718L119.737 16.4036L119.788 18.403ZM123.942 17.4508L129.897 50.1241L131.864 49.7655L125.91 17.0922L123.942 17.4508ZM165.597 37.1567L165.646 38.1555L166.617 38.1081L166.597 37.1359L165.597 37.1567ZM152.545 37.7939L152.497 36.7951L151.533 36.8422L151.545 37.8067L152.545 37.7939ZM152.633 44.6714L151.633 44.6842L151.647 45.7289L152.69 45.6698L152.633 44.6714ZM171.618 43.5947L172.617 43.5744L172.596 42.5376L171.561 42.5963L171.618 43.5947ZM171.706 47.9233L171.759 48.9219L172.725 48.8698L172.705 47.903L171.706 47.9233ZM148.502 49.1758L147.503 49.1919L147.519 50.2303L148.556 50.1743L148.502 49.1758ZM147.997 17.8647L147.981 16.8649L146.981 16.8805L146.997 17.8809L147.997 17.8647ZM171.859 17.4912L172.859 17.5278L172.897 16.4748L171.844 16.4913L171.859 17.4912ZM171.706 21.688L171.721 22.6879L172.67 22.6728L172.705 21.7246L171.706 21.688ZM152.326 21.9956L152.31 20.9957L151.314 21.0115L151.326 22.0071L152.326 21.9956ZM152.458 33.4653L151.458 33.4768L151.469 34.5061L152.498 34.4645L152.458 33.4653ZM165.509 32.938L166.509 32.9172L166.488 31.8976L165.469 31.9388L165.509 32.938ZM165.548 36.1579L152.497 36.7951L152.594 38.7928L165.646 38.1555L165.548 36.1579ZM151.545 37.8067L151.633 44.6842L153.633 44.6586L153.545 37.7812L151.545 37.8067ZM152.69 45.6698L171.674 44.5931L171.561 42.5963L152.577 43.673L152.69 45.6698ZM170.618 43.615L170.706 47.9436L172.705 47.903L172.617 43.5744L170.618 43.615ZM171.652 46.9248L148.449 48.1772L148.556 50.1743L171.759 48.9219L171.652 46.9248ZM149.502 49.1596L148.997 17.8486L146.997 17.8809L147.503 49.1919L149.502 49.1596ZM148.013 18.8646L171.875 18.4911L171.844 16.4913L147.981 16.8649L148.013 18.8646ZM170.86 17.4546L170.706 21.6514L172.705 21.7246L172.859 17.5278L170.86 17.4546ZM171.69 20.6881L152.31 20.9957L152.342 22.9955L171.721 22.6879L171.69 20.6881ZM151.326 22.0071L151.458 33.4768L153.457 33.4538L153.326 21.9841L151.326 22.0071ZM152.498 34.4645L165.55 33.9372L165.469 31.9388L152.417 32.4661L152.498 34.4645ZM164.509 32.9588L164.597 37.1776L166.597 37.1359L166.509 32.9172L164.509 32.9588ZM215.893 29.2466L216.892 29.2855L216.892 29.2796L215.893 29.2466ZM213.585 34.8936L214.328 35.5634L214.334 35.5561L213.585 34.8936ZM211.234 36.915L211.783 37.7513L211.792 37.745L211.234 36.915ZM208.378 38.4312L207.99 37.5093L206.899 37.968L207.534 38.9674L208.378 38.4312ZM214.772 48.4946L215.084 49.4447L216.305 49.0435L215.616 47.9583L214.772 48.4946ZM210.224 49.9888L209.366 50.503L209.777 51.1881L210.536 50.9388L210.224 49.9888ZM204.071 39.7275L204.929 39.2133L204.571 38.6164L203.887 38.7447L204.071 39.7275ZM201.874 40.0571L201.759 39.0637L201.757 39.064L201.874 40.0571ZM196.974 40.1011L196.89 41.0975L196.899 41.0983L196.908 41.0989L196.974 40.1011ZM194.25 39.7275L194.431 38.7442L193.238 38.5239L193.25 39.737L194.25 39.7275ZM194.337 49.0439L194.375 50.0432L195.347 50.0064L195.337 49.0345L194.337 49.0439ZM189.701 49.2197H188.701V50.2584L189.739 50.219L189.701 49.2197ZM189.701 18.1284L189.412 17.1712L188.701 17.386V18.1284H189.701ZM196.93 16.832L196.845 15.8356L196.832 15.8369L196.93 16.832ZM200.424 16.6343V15.6343H200.411L200.398 15.6346L200.424 16.6343ZM207.06 17.5352L206.78 18.4953L206.783 18.4962L207.06 17.5352ZM210.443 18.9414L209.959 19.8161L209.964 19.8189L210.443 18.9414ZM213.322 21.2485L212.569 21.907L212.575 21.9133L212.58 21.9194L213.322 21.2485ZM198.336 21.1387L198.408 22.1362L198.418 22.1354L198.336 21.1387ZM196.293 21.3364L196.391 22.3317L196.4 22.3307L196.41 22.3296L196.293 21.3364ZM194.118 21.688L193.894 20.7133L193.113 20.8924L193.118 21.6943L194.118 21.688ZM194.206 35.6846L193.206 35.6908L193.211 36.5122L194.017 36.6667L194.206 35.6846ZM196.271 35.9702L196.186 36.9666L196.197 36.9676L196.209 36.9683L196.271 35.9702ZM203.302 35.4429L203.547 36.4125L203.553 36.4109L203.302 35.4429ZM210.29 31.29L211.094 31.8841L211.098 31.8782L210.29 31.29ZM210.531 25.1597L209.674 25.6742L209.68 25.6846L210.531 25.1597ZM208.29 22.9404L207.753 23.7841L207.762 23.7899L208.29 22.9404ZM204.818 21.5342L204.583 22.5062L204.586 22.5068L204.818 21.5342ZM214.893 29.2077C214.854 30.2237 214.65 31.132 214.295 31.9439L216.128 32.7455C216.593 31.6824 216.844 30.5253 216.892 29.2855L214.893 29.2077ZM214.295 31.9439C213.927 32.7866 213.441 33.5478 212.836 34.231L214.334 35.5561C215.078 34.7159 215.676 33.7779 216.128 32.7455L214.295 31.9439ZM212.843 34.2238C212.228 34.906 211.507 35.527 210.677 36.0851L211.792 37.745C212.749 37.1019 213.596 36.3752 214.328 35.5633L212.843 34.2238ZM210.686 36.0788C209.845 36.6305 208.947 37.1074 207.99 37.5093L208.765 39.353C209.831 38.9053 210.837 38.3715 211.783 37.7513L210.686 36.0788ZM207.534 38.9674L213.928 49.0309L215.616 47.9583L209.222 37.8949L207.534 38.9674ZM214.46 47.5446L209.912 49.0387L210.536 50.9388L215.084 49.4447L214.46 47.5446ZM211.081 49.4745L204.929 39.2133L203.214 40.2418L209.366 50.503L211.081 49.4745ZM203.887 38.7447C203.209 38.8719 202.499 38.9783 201.759 39.0637L201.989 41.0505C202.772 40.9601 203.528 40.8469 204.256 40.7104L203.887 38.7447ZM201.757 39.064C201.056 39.1465 200.268 39.189 199.391 39.189V41.189C200.331 41.189 201.198 41.1436 201.991 41.0503L201.757 39.064ZM199.391 39.189C198.685 39.189 197.902 39.1607 197.041 39.1033L196.908 41.0989C197.804 41.1586 198.633 41.189 199.391 41.189V39.189ZM197.059 39.1046C196.23 39.0345 195.355 38.9147 194.431 38.7442L194.068 40.7109C195.049 40.892 195.989 41.0212 196.89 41.0975L197.059 39.1046ZM193.25 39.737L193.337 49.0534L195.337 49.0345L195.249 39.7181L193.25 39.737ZM194.3 48.0447L189.663 48.2204L189.739 50.219L194.375 50.0432L194.3 48.0447ZM190.701 49.2197V18.1284H188.701V49.2197H190.701ZM189.991 19.0856C191.206 18.7182 192.419 18.4433 193.63 18.2603L193.331 16.2827C192.022 16.4805 190.716 16.7769 189.412 17.1712L189.991 19.0856ZM193.63 18.2603C194.876 18.0719 196.009 17.9277 197.028 17.8272L196.832 15.8369C195.772 15.9414 194.604 16.0902 193.331 16.2827L193.63 18.2603ZM197.015 17.8284C198.198 17.7274 199.343 17.6627 200.45 17.6339L200.398 15.6346C199.249 15.6645 198.065 15.7316 196.845 15.8357L197.015 17.8284ZM200.424 17.6343C201.331 17.6343 202.347 17.6971 203.475 17.8256L203.701 15.8385C202.514 15.7032 201.421 15.6343 200.424 15.6343V17.6343ZM203.475 17.8256C204.574 17.9508 205.675 18.1737 206.78 18.4953L207.339 16.575C206.129 16.2228 204.917 15.9769 203.701 15.8385L203.475 17.8256ZM206.783 18.4962C207.881 18.812 208.94 19.2515 209.959 19.8161L210.928 18.0667C209.779 17.4302 208.581 16.9322 207.336 16.5741L206.783 18.4962ZM209.964 19.8189C210.96 20.3634 211.827 21.0585 212.569 21.907L214.074 20.59C213.176 19.5636 212.124 18.7206 210.923 18.064L209.964 19.8189ZM212.58 21.9194C213.317 22.7332 213.905 23.7357 214.335 24.9454L216.22 24.2753C215.712 22.8483 214.997 21.6096 214.063 20.5776L212.58 21.9194ZM214.335 24.9454C214.752 26.1188 214.949 27.5342 214.893 29.2135L216.892 29.2796C216.954 27.4141 216.74 25.7386 216.22 24.2753L214.335 24.9454ZM200.424 20.0508C199.721 20.0508 198.998 20.0813 198.255 20.142L198.418 22.1354C199.11 22.0788 199.779 22.0508 200.424 22.0508V20.0508ZM198.265 20.1412C197.632 20.1865 196.935 20.254 196.176 20.3433L196.41 22.3296C197.145 22.2431 197.811 22.1788 198.408 22.1361L198.265 20.1412ZM196.195 20.3412C195.408 20.4184 194.641 20.5422 193.894 20.7133L194.341 22.6627C195.001 22.5115 195.684 22.4009 196.391 22.3317L196.195 20.3412ZM193.118 21.6943L193.206 35.6908L195.206 35.6783L195.118 21.6817L193.118 21.6943ZM194.017 36.6667C194.74 36.805 195.463 36.905 196.186 36.9666L196.356 34.9738C195.702 34.9182 195.048 34.8278 194.394 34.7024L194.017 36.6667ZM196.209 36.9683C196.931 37.0134 197.633 37.0361 198.314 37.0361V35.0361C197.677 35.0361 197.017 35.0149 196.333 34.9722L196.209 36.9683ZM198.314 37.0361C200.148 37.0361 201.893 36.8298 203.547 36.4125L203.058 34.4733C201.577 34.8469 199.997 35.0361 198.314 35.0361V37.0361ZM203.553 36.4109C205.21 35.9814 206.684 35.3921 207.965 34.6332L206.945 32.9127C205.853 33.56 204.559 34.0841 203.051 34.4749L203.553 36.4109ZM207.965 34.6332C209.248 33.8731 210.299 32.9601 211.094 31.8841L209.485 30.696C208.873 31.5243 208.036 32.2666 206.945 32.9127L207.965 34.6332ZM211.098 31.8782C211.916 30.7538 212.344 29.5105 212.344 28.1699H210.344C210.344 29.0559 210.069 29.8926 209.481 30.7019L211.098 31.8782ZM212.344 28.1699C212.344 26.8743 212.031 25.6859 211.382 24.6348L209.68 25.6846C210.116 26.3912 210.344 27.2096 210.344 28.1699H212.344ZM211.389 24.6452C210.771 23.6155 209.904 22.766 208.818 22.091L207.762 23.7899C208.609 24.316 209.237 24.946 209.674 25.6742L211.389 24.6452ZM208.827 22.0968C207.749 21.411 206.485 20.9044 205.051 20.5616L204.586 22.5068C205.847 22.8084 206.897 23.2394 207.753 23.7841L208.827 22.0968ZM205.053 20.5622C203.632 20.2186 202.087 20.0508 200.424 20.0508V22.0508C201.954 22.0508 203.339 22.2053 204.583 22.5062L205.053 20.5622ZM256.959 43.8145L257.949 43.9559L257.95 43.9541L256.959 43.8145ZM256.081 46.561L255.203 46.0822L255.2 46.0879L256.081 46.561ZM252.301 50.0986L251.861 49.201L251.851 49.2058L251.841 49.2109L252.301 50.0986ZM249.796 51.0874L249.524 50.1253L249.52 50.1265L249.796 51.0874ZM247.16 51.6147L247.046 50.6213L247.038 50.6222L247.03 50.6232L247.16 51.6147ZM241.249 51.417L241.47 50.4417L241.458 50.439L241.249 51.417ZM237.997 50.4062L238.377 49.4813L238.371 49.4787L237.997 50.4062ZM234.855 48.8682L234.35 49.7311L234.355 49.7341L234.855 48.8682ZM231.801 46.8906L231.038 46.2435L230.333 47.0747L231.222 47.706L231.801 46.8906ZM235.009 43.1113L235.671 42.3623L234.907 41.6861L234.246 42.4642L235.009 43.1113ZM238.393 45.5063L237.927 46.3913L237.934 46.3949L237.941 46.3984L238.393 45.5063ZM241.425 46.8027L241.745 45.8554L241.736 45.8525L241.425 46.8027ZM244.413 47.5059L244.291 48.4984L244.324 48.5025L244.358 48.5043L244.413 47.5059ZM249.73 46.3193L250.25 47.1736L250.256 47.1704L249.73 46.3193ZM251.378 44.8252L252.191 45.4084L252.198 45.3987L251.378 44.8252ZM252.104 42.9795L253.097 43.0924L253.099 43.0764L253.1 43.0603L252.104 42.9795ZM251.818 41.5073L250.929 41.966L250.936 41.9779L251.818 41.5073ZM250.785 40.2769L250.143 41.043L250.15 41.0492L250.157 41.0553L250.785 40.2769ZM249.181 39.2881L248.751 40.1909L248.76 40.1952L248.769 40.1992L249.181 39.2881ZM247.204 38.519L246.881 39.4657L246.893 39.4698L246.905 39.4735L247.204 38.519ZM245.05 37.9258L244.817 38.8982L244.828 38.9009L244.839 38.9033L245.05 37.9258ZM242.919 37.4863L242.746 38.4713L242.751 38.4721L242.919 37.4863ZM240.282 36.915L240.022 37.8805L240.029 37.8824L240.036 37.8843L240.282 36.915ZM232.965 32.3667L232.14 32.9314L232.146 32.9397L232.152 32.9479L232.965 32.3667ZM231.647 29.4663L230.681 29.724L230.684 29.7359L231.647 29.4663ZM231.361 25.687L230.364 25.6122L230.364 25.615L231.361 25.687ZM232.086 22.5229L231.168 22.1273L231.165 22.1342L232.086 22.5229ZM233.646 19.9741L232.889 19.3208L232.882 19.3295L233.646 19.9741ZM235.844 18.0625L236.385 18.9037L236.388 18.9013L235.844 18.0625ZM241.403 15.9751L241.548 16.9645L241.56 16.9626L241.403 15.9751ZM244.413 15.7554L244.466 14.7568L244.447 14.7558L244.428 14.7555L244.413 15.7554ZM248.566 16.3926L248.321 17.3621L248.323 17.3627L248.566 16.3926ZM250.412 16.9639L250.07 17.9037L250.083 17.9083L250.095 17.9126L250.412 16.9639ZM252.389 17.7769L251.95 18.6752L251.958 18.6792L251.966 18.683L252.389 17.7769ZM254.345 18.8975L253.781 19.7237L253.788 19.7281L253.794 19.7324L254.345 18.8975ZM256.19 20.3696L257.035 20.9043L257.475 20.2103L256.879 19.6446L256.19 20.3696ZM253.729 24.2588L252.982 24.9232L253.864 25.9158L254.575 24.7935L253.729 24.2588ZM250.631 21.8418L250.146 22.716L250.156 22.7215L250.631 21.8418ZM247.555 20.5894L247.826 19.6267L247.818 19.6246L247.555 20.5894ZM244.237 20.062L244.278 19.0628L244.258 19.062H244.237V20.062ZM240.678 20.6772L241.033 21.612L241.045 21.6075L240.678 20.6772ZM238.041 22.2373L238.708 22.9821L238.709 22.9814L238.041 22.2373ZM236.415 24.3687L235.514 23.9348L235.511 23.942L236.415 24.3687ZM236.525 28.8511L235.677 29.3811L235.681 29.3874L235.685 29.3936L236.525 28.8511ZM241.183 32.2349L240.825 33.1686L240.836 33.1728L241.183 32.2349ZM244.633 33.0698L244.503 34.0614L244.513 34.0627L244.524 34.0639L244.633 33.0698ZM247.819 33.6411L247.576 34.6113L247.579 34.612L247.819 33.6411ZM253.532 36.146L252.944 36.9547L252.952 36.9608L252.96 36.9666L253.532 36.146ZM255.597 38.1455L254.79 38.7355L254.795 38.743L255.597 38.1455ZM256.806 40.6943L255.838 40.9474L255.841 40.9562L255.843 40.9651L256.806 40.6943ZM255.97 43.673C255.838 44.5952 255.578 45.394 255.203 46.0822L256.958 47.0399C257.462 46.1167 257.788 45.0844 257.949 43.9559L255.97 43.673ZM255.2 46.0879C254.827 46.7819 254.362 47.3794 253.804 47.8865L255.149 49.3664C255.88 48.7017 256.485 47.9222 256.962 47.0342L255.2 46.0879ZM253.804 47.8865C253.231 48.4073 252.584 48.8456 251.861 49.201L252.742 50.9963C253.629 50.5606 254.433 50.0175 255.149 49.3664L253.804 47.8865ZM251.841 49.2109C251.111 49.5892 250.339 49.8942 249.524 50.1253L250.069 52.0495C251.011 51.7826 251.909 51.4284 252.762 50.9864L251.841 49.2109ZM249.52 50.1265C248.709 50.3602 247.884 50.525 247.046 50.6213L247.274 52.6082C248.222 52.4994 249.156 52.3127 250.073 52.0483L249.52 50.1265ZM247.03 50.6232C246.175 50.7353 245.362 50.7905 244.589 50.7905V52.7905C245.457 52.7905 246.357 52.7286 247.29 52.6063L247.03 50.6232ZM244.589 50.7905C243.535 50.7905 242.496 50.6743 241.47 50.4417L241.028 52.3923C242.199 52.6577 243.387 52.7905 244.589 52.7905V50.7905ZM241.458 50.439C240.419 50.2175 239.393 49.8986 238.377 49.4813L237.617 51.3312C238.74 51.7928 239.881 52.1477 241.04 52.395L241.458 50.439ZM238.371 49.4787C237.362 49.0724 236.357 48.5806 235.355 48.0022L234.355 49.7341C235.433 50.3569 236.523 50.8905 237.623 51.3338L238.371 49.4787ZM235.36 48.0053C234.361 47.4201 233.368 46.7769 232.38 46.0753L231.222 47.706C232.255 48.4399 233.298 49.1151 234.35 49.731L235.36 48.0053ZM232.563 47.5378L235.771 43.7585L234.246 42.4642L231.038 46.2435L232.563 47.5378ZM234.346 43.8603C235.537 44.9133 236.73 45.7612 237.927 46.3913L238.858 44.6214C237.829 44.0797 236.766 43.3308 235.671 42.3623L234.346 43.8603ZM237.941 46.3984C239.1 46.9854 240.158 47.4399 241.113 47.753L241.736 45.8525C240.904 45.5796 239.941 45.1699 238.844 44.6142L237.941 46.3984ZM241.105 47.7501C242.2 48.1203 243.263 48.3718 244.291 48.4984L244.535 46.5133C243.659 46.4055 242.73 46.1883 241.745 45.8554L241.105 47.7501ZM244.358 48.5043C245.497 48.5676 246.578 48.4816 247.593 48.2361L247.122 46.2922C246.321 46.4862 245.438 46.5613 244.469 46.5074L244.358 48.5043ZM247.593 48.2361C248.583 47.9964 249.474 47.6463 250.25 47.1735L249.211 45.4651C248.64 45.8127 247.948 46.0924 247.122 46.2922L247.593 48.2361ZM250.256 47.1704C251.04 46.6865 251.693 46.102 252.191 45.4084L250.566 44.242C250.244 44.691 249.798 45.1026 249.205 45.4683L250.256 47.1704ZM252.198 45.3987C252.693 44.6904 253.003 43.9191 253.097 43.0924L251.11 42.8666C251.057 43.3289 250.884 43.7881 250.559 44.2517L252.198 45.3987ZM253.1 43.0603C253.158 42.3456 253.033 41.6607 252.7 41.0367L250.936 41.9779C251.071 42.2329 251.137 42.5294 251.107 42.8987L253.1 43.0603ZM252.706 41.0487C252.4 40.4547 251.96 39.9396 251.413 39.4984L250.157 41.0553C250.519 41.3465 250.767 41.6518 250.929 41.966L252.706 41.0487ZM251.428 39.5107C250.895 39.0637 250.28 38.6877 249.593 38.377L248.769 40.1992C249.312 40.4451 249.767 40.7283 250.143 41.043L251.428 39.5107ZM249.611 38.3852C248.95 38.0704 248.246 37.7972 247.502 37.5646L246.905 39.4735C247.567 39.6803 248.182 39.9198 248.751 40.1909L249.611 38.3852ZM247.526 37.5724C246.799 37.325 246.044 37.1171 245.261 36.9483L244.839 38.9033C245.551 39.0567 246.231 39.2444 246.881 39.4657L247.526 37.5724ZM245.284 36.9534C244.531 36.7728 243.799 36.6217 243.087 36.5005L242.751 38.4721C243.416 38.5853 244.105 38.7272 244.817 38.8982L245.284 36.9534ZM243.092 36.5014C242.284 36.3597 241.43 36.1748 240.528 35.9458L240.036 37.8843C240.98 38.1241 241.884 38.32 242.746 38.4713L243.092 36.5014ZM240.543 35.9496C239.67 35.7141 238.81 35.4091 237.962 35.0338L237.153 36.8627C238.092 37.2784 239.048 37.6179 240.022 37.8805L240.543 35.9496ZM237.962 35.0338C237.137 34.6684 236.358 34.2149 235.626 33.6725L234.436 35.2796C235.285 35.9091 236.191 36.4371 237.153 36.8627L237.962 35.0338ZM235.626 33.6725C234.921 33.1503 234.306 32.5228 233.779 31.7855L232.152 32.9479C232.797 33.8512 233.558 34.63 234.436 35.2796L235.626 33.6725ZM233.791 31.802C233.288 31.0679 232.892 30.2034 232.61 29.1967L230.684 29.7359C231.017 30.9265 231.5 31.9955 232.14 32.9314L233.791 31.802ZM232.613 29.2086C232.355 28.2406 232.262 27.0959 232.359 25.759L230.364 25.615C230.255 27.1199 230.353 28.4947 230.681 29.724L232.613 29.2086ZM232.359 25.7618C232.44 24.6816 232.66 23.7352 233.008 22.9116L231.165 22.1342C230.721 23.1857 230.459 24.3487 230.364 25.6122L232.359 25.7618ZM233.005 22.9186C233.379 22.051 233.848 21.2864 234.411 20.6187L232.882 19.3295C232.185 20.156 231.615 21.0906 231.168 22.1273L233.005 22.9186ZM234.404 20.6274C234.986 19.9521 235.646 19.3785 236.385 18.9037L235.303 17.2213C234.401 17.8012 233.596 18.502 232.889 19.3209L234.404 20.6274ZM236.388 18.9013C237.162 18.3989 237.983 17.9848 238.854 17.6585L238.151 15.7858C237.146 16.1627 236.195 16.6421 235.299 17.2237L236.388 18.9013ZM238.854 17.6585C239.724 17.332 240.622 17.1007 241.548 16.9645L241.257 14.9857C240.191 15.1425 239.156 15.4092 238.151 15.7858L238.854 17.6585ZM241.56 16.9626C242.516 16.8103 243.461 16.7415 244.398 16.7553L244.428 14.7555C243.373 14.74 242.311 14.8176 241.245 14.9876L241.56 16.9626ZM244.36 16.754C245.67 16.8236 246.99 17.0258 248.321 17.3621L248.811 15.423C247.359 15.0562 245.91 14.8336 244.466 14.7568L244.36 16.754ZM248.323 17.3627C248.872 17.4998 249.454 17.6796 250.07 17.9037L250.753 16.0241C250.081 15.7794 249.432 15.5783 248.808 15.4224L248.323 17.3627ZM250.095 17.9126C250.71 18.1175 251.328 18.3714 251.95 18.6752L252.828 16.8785C252.132 16.5378 251.431 16.2497 250.728 16.0152L250.095 17.9126ZM251.966 18.683C252.573 18.9663 253.178 19.3125 253.781 19.7237L254.908 18.0712C254.222 17.6036 253.523 17.2027 252.812 16.8707L251.966 18.683ZM253.794 19.7324C254.387 20.1232 254.957 20.5768 255.502 21.0946L256.879 19.6446C256.252 19.0492 255.591 18.5213 254.895 18.0625L253.794 19.7324ZM255.345 19.8349L252.884 23.7241L254.575 24.7935L257.035 20.9043L255.345 19.8349ZM254.477 23.5944C253.967 23.0205 253.42 22.5129 252.835 22.0745L251.635 23.6745C252.106 24.0272 252.555 24.4424 252.982 24.9232L254.477 23.5944ZM252.835 22.0745C252.271 21.6514 251.695 21.2801 251.107 20.9621L250.156 22.7215C250.652 22.9894 251.145 23.3066 251.635 23.6745L252.835 22.0745ZM251.117 20.9676C250.553 20.6541 249.984 20.3853 249.412 20.1627L248.687 22.0267C249.169 22.2143 249.655 22.4436 250.146 22.716L251.117 20.9676ZM249.412 20.1627C248.859 19.9478 248.33 19.7685 247.826 19.6267L247.284 21.552C247.718 21.6738 248.185 21.8315 248.687 22.0267L249.412 20.1627ZM247.818 19.6246C246.623 19.2987 245.443 19.1101 244.278 19.0628L244.197 21.0612C245.2 21.1019 246.231 21.2648 247.292 21.5541L247.818 19.6246ZM244.237 19.062C242.802 19.062 241.488 19.2828 240.311 19.747L241.045 21.6075C241.948 21.2514 243.006 21.062 244.237 21.062V19.062ZM240.322 19.7425C239.185 20.1752 238.195 20.7549 237.373 21.4933L238.709 22.9814C239.322 22.4307 240.091 21.9703 241.033 21.6119L240.322 19.7425ZM237.374 21.4925C236.581 22.2031 235.956 23.0172 235.514 23.9348L237.316 24.8025C237.636 24.1381 238.095 23.5313 238.708 22.9821L237.374 21.4925ZM235.511 23.942C235.089 24.8348 234.866 25.7488 234.866 26.6758H236.866C236.866 26.0793 237.008 25.4552 237.319 24.7953L235.511 23.942ZM234.866 26.6758C234.866 27.6304 235.149 28.537 235.677 29.3811L237.373 28.3211C237.022 27.7589 236.866 27.2153 236.866 26.6758H234.866ZM235.685 29.3936C236.217 30.2169 236.932 30.9412 237.807 31.5734L238.978 29.952C238.271 29.4416 237.741 28.8915 237.365 28.3085L235.685 29.3936ZM237.807 31.5734C238.679 32.2032 239.688 32.7326 240.825 33.1685L241.541 31.3012C240.539 30.9168 239.688 30.4648 238.978 29.952L237.807 31.5734ZM240.836 33.1728C241.982 33.5964 243.205 33.8914 244.503 34.0614L244.763 32.0783C243.6 31.926 242.523 31.6644 241.53 31.297L240.836 33.1728ZM244.524 34.0639C245.548 34.1761 246.565 34.3585 247.576 34.6113L248.061 32.671C246.963 32.3964 245.857 32.1979 244.742 32.0758L244.524 34.0639ZM247.579 34.612C248.6 34.8636 249.567 35.184 250.482 35.5724L251.264 33.7313C250.246 33.2994 249.177 32.946 248.058 32.6702L247.579 34.612ZM250.482 35.5724C251.383 35.9545 252.203 36.4158 252.944 36.9547L254.12 35.3373C253.25 34.7043 252.297 34.1695 251.264 33.7313L250.482 35.5724ZM252.96 36.9666C253.695 37.4784 254.302 38.0684 254.79 38.7355L256.405 37.5555C255.779 36.6992 255.009 35.9562 254.103 35.3254L252.96 36.9666ZM254.795 38.743C255.271 39.3812 255.62 40.1125 255.838 40.9474L257.773 40.4413C257.493 39.3719 257.037 38.4039 256.399 37.548L254.795 38.743ZM255.843 40.9651C256.063 41.7468 256.115 42.6445 255.969 43.6748L257.95 43.9541C258.127 42.6993 258.076 41.5168 257.768 40.4236L255.843 40.9651ZM279.394 48.231V49.231H280.403L280.394 48.2216L279.394 48.231ZM274.977 48.231L273.977 48.2561L274.002 49.231H274.977V48.231ZM274.208 17.689L274.244 16.6896L273.182 16.6515L273.208 17.7141L274.208 17.689ZM279.108 17.8647L280.108 17.8553L280.099 16.8997L279.144 16.8654L279.108 17.8647ZM279.394 47.231H274.977V49.231H279.394V47.231ZM275.977 48.2058L275.208 17.6638L273.208 17.7141L273.977 48.2561L275.977 48.2058ZM274.172 18.6883L279.072 18.8641L279.144 16.8654L274.244 16.6896L274.172 18.6883ZM278.108 17.8742L278.394 48.2404L280.394 48.2216L280.108 17.8553L278.108 17.8742ZM322.812 50.2524L321.85 50.5259L322.089 51.3669L322.954 51.2422L322.812 50.2524ZM321.493 45.814L320.537 46.1074L320.538 46.1101L321.493 45.814ZM320.065 41.3535L321.014 41.0373L320.775 40.3217L320.022 40.3545L320.065 41.3535ZM302.377 42.1226L302.334 41.1235L301.679 41.1519L301.444 41.7629L302.377 42.1226ZM299.367 50.5381L299.231 51.5289L300.056 51.6415L300.316 50.8514L299.367 50.5381ZM294.379 49.8569L293.442 49.5074L293.005 50.6786L294.244 50.8477L294.379 49.8569ZM301.234 33.5093L300.329 33.084L300.328 33.086L301.234 33.5093ZM309.276 17.5791L309.294 16.5793L308.686 16.5684L308.397 17.1037L309.276 17.5791ZM315.429 17.689L316.325 17.2449L316.055 16.7L315.447 16.6891L315.429 17.689ZM322.328 33.2456L321.398 33.6117L321.398 33.6125L322.328 33.2456ZM327.997 49.5054L328.14 50.4952L329.294 50.3288L328.954 49.2134L327.997 49.5054ZM311.891 21.2266L312.793 20.7949L311.933 18.9982L311.006 20.761L311.891 21.2266ZM307.694 29.708L308.601 30.1306L308.601 30.1288L307.694 29.708ZM303.915 38.2993L302.991 37.9167L302.391 39.3656L303.958 39.2984L303.915 38.2993ZM318.769 37.6621L318.811 38.6612L320.163 38.6032L319.711 37.3283L318.769 37.6621ZM323.773 49.979C323.346 48.4774 322.905 46.9903 322.448 45.5179L320.538 46.1101C320.99 47.5673 321.427 49.0392 321.85 50.5259L323.773 49.979ZM322.449 45.5205C321.993 44.0333 321.514 42.5389 321.014 41.0373L319.116 41.6697C319.612 43.1564 320.085 44.6357 320.537 46.1074L322.449 45.5205ZM320.022 40.3545L302.334 41.1235L302.42 43.1216L320.108 42.3526L320.022 40.3545ZM301.444 41.7629C300.899 43.1766 300.376 44.583 299.875 45.9824L301.758 46.6563C302.254 45.2724 302.771 43.8811 303.31 42.4822L301.444 41.7629ZM299.875 45.9824C299.374 47.3819 298.888 48.7961 298.417 50.2248L300.316 50.8514C300.783 49.4383 301.263 48.0399 301.758 46.6563L299.875 45.9824ZM299.502 49.5473L294.514 48.8661L294.244 50.8477L299.231 51.5289L299.502 49.5473ZM295.316 50.2064C297.372 44.6944 299.647 39.2698 302.14 33.9326L300.328 33.086C297.812 38.4715 295.517 43.9453 293.442 49.5074L295.316 50.2064ZM302.139 33.9346C304.651 28.5904 307.323 23.297 310.156 18.0545L308.397 17.1037C305.546 22.3788 302.857 27.7055 300.329 33.084L302.139 33.9346ZM309.259 18.5789L315.411 18.6888L315.447 16.6891L309.294 16.5793L309.259 18.5789ZM314.533 18.1331C317.04 23.1905 319.328 28.35 321.398 33.6117L323.259 32.8796C321.168 27.565 318.857 22.3534 316.325 17.2449L314.533 18.1331ZM321.398 33.6125C323.468 38.8607 325.349 44.2556 327.041 49.7973L328.954 49.2134C327.247 43.6223 325.348 38.1774 323.258 32.8787L321.398 33.6125ZM327.854 48.5156L322.669 49.2627L322.954 51.2422L328.14 50.4952L327.854 48.5156ZM311.006 20.761C309.519 23.588 308.113 26.4301 306.787 29.2872L308.601 30.1288C309.913 27.3024 311.304 24.4901 312.776 21.6921L311.006 20.761ZM306.788 29.2854C305.463 32.1258 304.198 35.0029 302.991 37.9167L304.839 38.6819C306.035 35.7949 307.288 32.9445 308.601 30.1306L306.788 29.2854ZM303.958 39.2984L318.811 38.6612L318.726 36.663L303.872 37.3002L303.958 39.2984ZM319.711 37.3283C318.709 34.4976 317.632 31.7181 316.482 28.9899L314.639 29.7669C315.774 32.4586 316.836 35.2016 317.826 37.996L319.711 37.3283ZM316.482 28.9899C315.333 26.265 314.103 23.5334 312.793 20.7949L310.989 21.6582C312.286 24.369 313.503 27.0719 314.639 29.7669L316.482 28.9899Z" fill="#00C8F3" fill-opacity="0.93" mask="url(#path-9-outside-1_25_5)"/>
</svg>
